Genre:Thriller
Language:English
IMDb:http://www.imdb.com/title/tt1436034/
Source:NTSC.DVDR
Subtitles:Romana


Format : Matroska
File size : 892 MiB
Duration : 1h 32mn
Overall bit rate : 1 344 Kbps


Video
Format settings, CABAC : Yes
Format settings, ReFrames : 4 frames
Format settings, GOP : N=1
Codec ID : V_MPEG4/ISO/AVC
Duration : 1h 32mn
Bit rate : 899 Kbps
Width : 720 pixels
Height : 384 pixels
Display aspect ratio : 1.875
Frame rate mode : Variable
Frame rate : 23.976 fps
Color space : YUV
Chroma subsampling : 4:2:0
Bit depth : 8 bits
Scan type : Progressive
Bits/(Pixel*Frame) : 0.136
Stream size : 577 MiB (65%)
Writing library : x264


Audio
ID : 2
Format : AC-3
Format/Info : Audio Coding 3
Mode extension : CM (complete main)
Codec ID : A_AC3
Duration : 1h 32mn
Bit rate mode : Constant
Bit rate : 448 Kbps
Channel(s) : 6 channels
Channel positions : Front: L C R, Side: L R, LFE
Sampling rate : 48.0 KHz
Bit depth : 16 bits
Video delay : -1mn 5s
Stream size : 297 MiB (33%)
Language : English


Plot:
Black Ops operative Malcolm Gray returns home after a botched mission in Eastern Europe. Holed up in a Brooklyn motel room







================================== 
http://thepiratebay.org/user/hiest
==================================